<?xml version="1.0" encoding="utf-8"?>
<!-- Svg Vector Icons : http://www.onlinewebfonts.com/icon -->
<!DOCTYPE svg PUBLIC "-//W3C//DTD SVG 1.1//EN" "http://www.w3.org/Graphics/SVG/1.1/DTD/svg11.dtd">
<svg version="1.1" xmlns="http://www.w3.org/2000/svg" xmlns:xlink="http://www.w3.org/1999/xlink" x="0px" y="0px" viewBox="0 0 1000 1000" enable-background="new 0 0 1000 1000" xml:space="preserve">
<metadata> Svg Vector Icons : http://www.onlinewebfonts.com/icon </metadata>
<g><g transform="translate(0.000000,511.000000) scale(0.100000,-0.100000)"><path d="M7488.6,5007.7c-63.4-10.2-1612.6-1830.6-1747-2051.2c-96.3-159.7-149.6-413.3-126.8-593.3c33-251,195.3-585.7,372.7-773.3l76.1-78.6l-446.2-537.5c-481.7-585.7-504.6-628.8-382.9-750.5c86.2-86.2,177.5-104,256.1-53.2c35.5,25.4,253.5,271.3,484.3,547.7l415.8,504.6l164.8-76.1c230.7-109,550.2-159.7,773.3-126.8c228.2,35.5,377.8,104,519.8,233.3c60.9,58.3,342.3,385.4,618.7,730.2c278.9,342.3,613.6,755.6,748,915.3c207.9,251,240.9,304.3,243.4,385.4c0,152.1-175,268.8-304.3,197.8c-43.1-22.8-324.5-355-999-1186.6c-149.6-185.1-284-334.7-296.6-329.6c-33,10.1-248.5,182.5-251,197.8c0,7.6,273.8,337.2,608.5,732.8c633.9,753.1,654.2,783.5,580.6,917.9c-33,65.9-159.8,119.2-240.9,104c-40.6-7.6-246-230.7-649.1-709.9c-324.6-385.4-603.5-715-618.7-735.3c-20.3-27.9-45.7-17.8-139.5,58.3c-60.9,53.3-114.1,104-119.2,116.6c-5.1,10.1,207.9,273.8,469.1,585.7c768.3,907.7,742.9,874.8,742.9,971.1c0,63.4-20.3,101.4-78.6,149.6c-88.8,76.1-164.8,83.7-245.9,27.9c-30.4-22.8-324.5-360-651.6-748l-598.4-709.9l-111.6,93.8c-63.4,50.7-114.1,101.4-114.1,111.6s296.7,367.6,659.2,798.7c699.8,829.1,715,854.5,621.2,991.4C7678.8,4979.8,7569.7,5020.4,7488.6,5007.7z M6867.4,2198.3c385.4-316.9,702.4-585.7,702.4-600.9c0-15.2-40.6-50.7-88.8-78.6c-73.5-43.1-131.9-53.2-342.3-53.2c-230.7,0-266.2,7.6-405.7,76.1c-210.4,104-489.3,385.4-593.3,598.4c-63.4,131.8-81.1,197.8-81.1,319.5c-2.5,136.9,50.7,311.9,93.8,311.9C6160,2771.3,6482,2512.7,6867.4,2198.3z"/><path d="M736.5,3968.1c-131.9-68.5-210.4-233.3-192.7-403.2c33-291.6,210.5-704.9,702.3-1622.7C2265.4,35.5,2635.6-565.4,3033.7-963.5c235.8-238.3,431-329.6,682.1-327.1c235.8,2.5,355,53.3,560.4,240.9l152.1,139.5l152.1-192.7c83.7-106.5,332.2-446.3,552.7-753.1C6091.5-3182,6296.9-3448.3,6621.4-3775.4c294.1-299.2,474.1-387.9,783.5-387.9c185.1,0,235.8,10.2,360,71c281.4,136.9,484.3,410.8,552.7,737.9c35.5,174.9,20.3,342.3-55.8,542.6c-63.4,177.5-271.3,387.9-1833.2,1856c-2997,2824.6-5182.6,4837.8-5344.9,4926.5C979.9,4026.4,848.1,4026.4,736.5,3968.1z M1547.9,3035C2777.6,1922,6515-1572,7437.9-2472.1c456.4-443.7,514.7-532.5,491.9-755.6c-38-375.3-382.9-633.9-694.7-514.7c-268.8,98.9-623.7,522.3-1693.7,2013.2C5161-1199.3,4747.7-656.7,4557.5-436.1l-86.2,98.9l-251-218.1c-139.5-119.2-271.3-240.9-299.2-271.3c-63.4-68.5-185.1-88.7-322-53.3c-157.2,43.1-469.1,362.6-712.5,735.3c-466.5,710-1691.2,2981.8-1856,3443.2c-91.3,253.6-86.2,289.1,17.7,192.7C1091.5,3448.3,1317.1,3245.5,1547.9,3035z"/><path d="M2721.8-1392C2240.1-1807.8,1246.1-2819.5,876-3273.3c-311.9-382.9-377.8-704.9-213-1044.6c149.6-314.4,593.3-522.3,981.2-461.5c281.4,45.6,390.5,134.4,857,717.5c403.1,502,1663.3,2185.6,1731.7,2317.5c98.9,182.6-164.8,398.1-322,263.7c-27.9-25.4-263.7-337.2-524.9-692.2C2445.4-3450.8,1839.5-4214,1692.4-4305.3c-256.1-154.7-677,53.2-677,337.2c0,230.7,235.8,514.7,1303.3,1577.1c753.1,753.1,811.4,816.4,811.4,897.6c0,63.4-17.7,104-71,147.1C2955.1-1255,2863.8-1267.7,2721.8-1392z"/></g></g>
</svg>